<?xml version="1.0" encoding="UTF-8"?>
<svg version="1.1" xmlns="http://www.w3.org/2000/svg" width="1024" height="1024">
<path d="M0 0 C1.15179749 -0.02889816 2.30359497 -0.05779633 3.49029541 -0.08757019 C8.74341193 -0.1636617 13.99598811 -0.23806979 19.24951172 -0.27539062 C22.70149909 -0.30306329 26.15030244 -0.38221992 29.60112381 -0.47293377 C32.91719033 -0.54754243 36.23297191 -0.5587185 39.54980469 -0.5793457 C40.77822083 -0.61952316 42.00663696 -0.65970062 43.27227783 -0.70109558 C49.92639558 -0.6680903 53.52596742 -0.02513853 58.33789062 4.76123047 C59.63517031 6.27763797 60.9122839 7.81177255 62.15917969 9.36987305 C63.52042969 10.70018555 63.52042969 10.70018555 64.90917969 12.05737305 C67.15917969 14.36987305 67.15917969 14.36987305 69.59667969 17.36987305 C72.06633084 20.4337041 72.06633084 20.4337041 75.09667969 22.80737305 C77.47031458 24.79347571 79.21801715 26.52324575 81.15917969 28.86987305 C83.06286869 31.16913379 84.76601066 32.87341364 87.09667969 34.80737305 C89.47916551 36.80088159 91.25521845 38.55553714 93.23095703 40.89331055 C100.32762081 49.0949735 108.14102549 56.65612365 115.78417969 64.3449707 C117.79482451 66.36905644 119.79790565 68.40021226 121.79492188 70.43774414 C124.68615337 73.387582 127.5974289 76.31683889 130.51074219 79.24487305 C131.40354889 80.16034912 132.29635559 81.0758252 133.21621704 82.01904297 C134.05413788 82.85411377 134.89205872 83.68918457 135.75537109 84.54956055 C136.48704498 85.28932129 137.21871887 86.02908203 137.9725647 86.79125977 C140.61061692 88.69578539 141.97277906 88.82456641 145.15917969 88.36987305 C146.84716795 86.93237114 146.84716795 86.93237114 148.15917969 85.36987305 C148.81917969 85.36987305 149.47917969 85.36987305 150.15917969 85.36987305 C150.36542969 84.81299805 150.57167969 84.25612305 150.78417969 83.68237305 C152.31888253 81.1012819 154.1859065 79.62828602 156.52246094 77.78393555 C158.25510858 76.28699414 159.64409397 74.70039963 161.09667969 72.93237305 C163.70499879 69.77202874 166.55470947 67.19908195 169.74121094 64.6315918 C171.29612389 63.40508011 171.29612389 63.40508011 172.15917969 61.36987305 C172.81917969 61.36987305 173.47917969 61.36987305 174.15917969 61.36987305 C174.42730469 60.73049805 174.69542969 60.09112305 174.97167969 59.43237305 C176.15917969 57.36987305 176.15917969 57.36987305 179.15917969 56.36987305 C179.48917969 55.37987305 179.81917969 54.38987305 180.15917969 53.36987305 C181.57660722 52.18868343 182.99811578 51.01199319 184.44140625 49.86254883 C186.24916142 48.29168256 187.7272825 46.63154038 189.26855469 44.79956055 C193.53887784 39.85399607 198.14244382 35.27696629 202.78417969 30.68237305 C203.61691406 29.85415039 204.44964844 29.02592773 205.30761719 28.17260742 C206.90023513 26.58886554 208.49415457 25.00643097 210.08959961 23.42553711 C211.75564655 21.7706928 213.41114985 20.10668543 215.06152344 18.4362793 C217.15917969 16.36987305 217.15917969 16.36987305 220.09667969 13.99487305 C222.98376025 11.64216215 225.31374755 8.99437055 227.66699219 6.1159668 C228.15941406 5.53975586 228.65183594 4.96354492 229.15917969 4.36987305 C229.72608017 3.68420761 230.29298065 2.99854218 230.87705994 2.292099 C233.80898044 -0.17745313 235.36668421 -0.13124366 239.1652832 -0.13183594 C240.37656387 -0.14121689 241.58784454 -0.15059784 242.83583069 -0.16026306 C244.14007492 -0.14902908 245.44431915 -0.1377951 246.78808594 -0.1262207 C248.14281797 -0.12637572 249.49755045 -0.12786519 250.85227966 -0.13063049 C253.68777129 -0.13201346 256.52275645 -0.11947303 259.3581543 -0.09667969 C262.99229428 -0.06826728 266.62559471 -0.07104062 270.2597971 -0.0837698 C273.0556709 -0.09072427 275.85135061 -0.08294099 278.64719963 -0.07051277 C280.63861365 -0.06380316 282.63005493 -0.06814116 284.62147522 -0.07261658 C286.43366798 -0.05359032 286.43366798 -0.05359032 288.2824707 -0.03417969 C289.3474025 -0.0287767 290.41233429 -0.02337372 291.50953674 -0.01780701 C294.15917969 0.36987305 294.15917969 0.36987305 295.80181408 1.54547977 C297.68718411 4.07954752 297.53122863 5.80453617 297.52667236 8.94784546 C297.53224435 10.11415749 297.53781633 11.28046951 297.54355717 12.48212433 C297.52973074 14.41115223 297.52973074 14.41115223 297.515625 16.37915039 C297.51639292 17.75257241 297.51846739 19.12599421 297.52174282 20.49941254 C297.5268561 24.27176657 297.51310891 28.0438526 297.49617934 31.81616354 C297.48116851 35.85807774 297.48311578 39.89998793 297.48286438 43.94192505 C297.47953368 51.81000331 297.45971099 59.67795822 297.43403333 67.54599202 C297.41363219 73.90565814 297.39975341 80.26530841 297.39035034 86.625 C297.38900418 87.52611645 297.38765802 88.4272329 297.38627106 89.35565591 C297.38492234 90.25874482 297.38357362 91.16183373 297.38218403 92.09228897 C297.31018308 140.22973886 297.08972074 188.36718033 296.75212097 236.50348663 C296.73164657 239.42433609 296.71169257 242.34518835 296.69221497 245.26604462 C296.63694178 253.53635281 296.57631308 261.80657792 296.50649071 270.07677841 C296.48606906 272.56257762 296.46722239 275.04839033 296.450037 277.53421402 C296.42629782 280.89030271 296.39634842 284.24627481 296.36450195 287.60229492 C296.35874775 288.58977407 296.35299355 289.57725323 296.34706497 290.59465599 C296.33727489 291.48207796 296.32748482 292.36949993 296.31739807 293.28381348 C296.30771924 294.4399477 296.30771924 294.4399477 296.29784489 295.61943817 C296.15917969 297.36987305 296.15917969 297.36987305 295.15917969 298.36987305 C292.00905765 298.47590806 288.88073846 298.51664696 285.72998047 298.51513672 C284.24469345 298.52017464 284.24469345 298.52017464 282.72940063 298.52531433 C279.43775192 298.53485682 276.1461539 298.53676915 272.85449219 298.5378418 C270.57624286 298.54105229 268.29799375 298.5444162 266.01974487 298.54792786 C261.23630292 298.55392753 256.45287905 298.55576692 251.66943359 298.55517578 C245.52997716 298.55507416 239.39063637 298.56872284 233.25120735 298.58594799 C228.54327865 298.59704923 223.83537805 298.59909556 219.12743759 298.59856606 C216.86355058 298.59974915 214.59966292 298.60418922 212.33578873 298.61189842 C209.17283206 298.62165966 206.01012842 298.61883545 202.84716797 298.61279297 C201.90574951 298.61841248 200.96433105 298.62403198 199.99438477 298.62982178 C199.13346222 298.62562729 198.27253967 298.6214328 197.38552856 298.61711121 C196.63740969 298.61765597 195.88929081 298.61820074 195.11850166 298.61876202 C193.15917969 298.36987305 193.15917969 298.36987305 190.15917969 296.36987305 C189.86434004 293.27883018 189.76360261 290.38629904 189.7902832 287.29296875 C189.78463348 285.88026703 189.78463348 285.88026703 189.77886963 284.43902588 C189.77241958 282.38685922 189.77278357 280.33466271 189.77905464 278.2824955 C189.78815045 275.02253443 189.77795331 271.76315056 189.76243591 268.5032196 C189.72232465 259.23181115 189.72111665 249.9604456 189.72338867 240.68896484 C189.72344014 235.01957101 189.70407875 229.35048308 189.6740551 223.68117332 C189.66332356 220.49128477 189.67531275 217.30200509 189.68788147 214.11213684 C189.66364489 200.68404419 189.27989191 186.73887016 181.15917969 175.36987305 C180.49917969 175.03987305 179.83917969 174.70987305 179.15917969 174.36987305 C178.85882812 173.76014648 178.55847656 173.15041992 178.24902344 172.5222168 C174.44154674 165.0027915 165.70652033 161.10000225 158.15917969 158.36987305 C147.67362892 155.52481746 132.29490859 155.83405528 122.54980469 160.6628418 C113.2689356 165.9571883 113.2689356 165.9571883 107.15917969 174.36987305 C106.68867188 174.83264648 106.21816406 175.29541992 105.73339844 175.7722168 C94.79560628 186.8728545 96.68817102 206.20271251 96.64746094 220.41674805 C96.63059208 222.64163185 96.61243891 224.86650625 96.59306335 227.09136963 C96.54579696 232.91089947 96.51583689 238.73039116 96.48962402 244.55004883 C96.45970005 250.50308764 96.41321067 256.45599536 96.36816406 262.40893555 C96.28239699 274.06251247 96.21493402 285.71611656 96.15917969 297.36987305 C93.87224053 298.51334263 92.60127514 298.49788988 90.05981445 298.50358582 C89.20171173 298.5078508 88.34360901 298.51211578 87.45950317 298.51651001 C86.51606049 298.51605682 85.5726178 298.51560364 84.60058594 298.51513672 C83.60864227 298.51849533 82.61669861 298.52185394 81.59469604 298.52531433 C78.30367799 298.53484219 75.01271069 298.53676826 71.72167969 298.5378418 C69.44246397 298.54105271 67.16324847 298.54441665 64.8840332 298.54792786 C60.10237144 298.55392345 55.32072776 298.55576728 50.5390625 298.55517578 C44.39841536 298.55507404 38.25788356 298.56873631 32.11726379 298.58594799 C27.40937767 298.59704062 22.70151969 298.59909585 17.99362183 298.59856606 C15.7289083 298.59974993 13.46419414 298.60419431 11.19949341 298.61189842 C8.0388367 298.62164475 4.87843382 298.61884173 1.71777344 298.61279297 C0.30260941 298.62122223 0.30260941 298.62122223 -1.1411438 298.62982178 C-1.99924652 298.62562729 -2.85734924 298.6214328 -3.74145508 298.61711121 C-4.48919693 298.61765597 -5.23693878 298.61820074 -6.00733948 298.61876202 C-7.84082031 298.36987305 -7.84082031 298.36987305 -9.84082031 296.36987305 C-10.08043402 293.85479798 -10.19127572 291.44479573 -10.21972656 288.92456055 C-10.23635849 288.12429443 -10.25299042 287.32402832 -10.27012634 286.49951172 C-10.32429282 283.7480552 -10.36375007 280.99657574 -10.40332031 278.24487305 C-10.43914411 276.25934717 -10.47562567 274.27383308 -10.51269531 272.28833008 C-10.76078679 258.35805341 -10.91808079 244.42628996 -11.08691406 230.49487305 C-11.09750917 229.6260059 -11.10810429 228.75713875 -11.11902046 227.86194229 C-11.226114 219.07223841 -11.33120158 210.28254086 -11.42201519 201.49265194 C-11.46543756 197.32409323 -11.51160005 193.15556929 -11.55957031 188.98706055 C-11.56894686 188.17062765 -11.5783234 187.35419476 -11.58798409 186.51302147 C-11.70659421 176.58820777 -11.94332521 166.68177217 -12.36425781 156.7644043 C-13.10066208 138.90647596 -12.99188005 121.03636293 -12.97119141 103.16650391 C-12.96545206 98.15359859 -12.96881683 93.14074636 -12.97476387 88.1278429 C-12.97840665 84.19746004 -12.97721469 80.26708943 -12.97463608 76.33670616 C-12.9739793 74.48910198 -12.97475032 72.6414966 -12.97711563 70.79389381 C-12.98742381 60.50318396 -12.7610662 50.28490356 -12.07885742 40.01594543 C-11.80154467 35.76827845 -11.63281432 31.5269351 -11.52441406 27.2722168 C-11.50363297 26.54160538 -11.48285187 25.81099396 -11.46144104 25.0582428 C-11.39797474 22.80801208 -11.3380464 20.55770577 -11.27832031 18.30737305 C-11.23494001 16.7468195 -11.19132107 15.18627256 -11.14746094 13.62573242 C-11.04251516 9.87385099 -10.9407328 6.1218923 -10.84082031 2.36987305 C-7.1031316 0.65962855 -4.0989069 0.09215367 0 0 Z " fill="#1D3A53" transform="translate(368.8408203125,338.630126953125)"/>
<path d="M0 0 C3.72165535 -0.0196326 7.44329492 -0.03398529 11.1649878 -0.04415035 C13.18433781 -0.05076916 15.20367008 -0.06223755 17.22299767 -0.07382965 C18.40970621 -0.07590172 19.59641476 -0.07797379 20.81908417 -0.08010864 C21.85674486 -0.08395317 22.89440556 -0.0877977 23.96351051 -0.09175873 C26.28487396 0.02523804 26.28487396 0.02523804 27.28487396 1.02523804 C27.50347835 5.40687829 27.47066474 9.79396932 27.4701767 14.18051147 C27.47235805 16.38415988 27.49049564 18.58730366 27.50948334 20.79086304 C27.51241824 22.18929882 27.51440239 23.58773699 27.51534271 24.98617554 C27.5194516 26.26283081 27.52356049 27.53948608 27.52779388 28.85482788 C27.28487396 32.02523804 27.28487396 32.02523804 25.28487396 35.02523804 C22.74212116 35.39898419 22.74212116 35.39898419 19.45055294 35.39717484 C17.57492142 35.4070596 17.57492142 35.4070596 15.66139835 35.41714406 C14.26094057 35.40927483 12.86048433 35.40112695 11.4600296 35.39273071 C9.98233535 35.39475329 8.5046424 35.39809055 7.02695376 35.40263629 C2.95155767 35.41132074 -1.12361213 35.40118537 -5.19898856 35.38809395 C-9.5882483 35.37723246 -13.97748627 35.38360304 -18.36675262 35.38787842 C-26.97087537 35.39352322 -35.5749093 35.38317556 -44.1790169 35.36759046 C-54.18842692 35.35009061 -64.19781948 35.34863204 -74.20724242 35.34797487 C-92.05990582 35.34628527 -109.91252864 35.33045124 -127.76517487 35.30648804 C-145.10860277 35.28322508 -162.45200493 35.26906304 -179.7954483 35.26547241 C-180.86370187 35.26524964 -181.93195544 35.26502688 -183.03258032 35.26479736 C-185.18443532 35.26435478 -187.33629032 35.26391275 -189.48814532 35.26347129 C-190.5495119 35.26325172 -191.61087848 35.26303216 -192.70440769 35.26280594 C-193.76300771 35.26258995 -194.82160772 35.26237397 -195.91228652 35.26215144 C-212.41265861 35.2584545 -228.91302651 35.24709479 -245.41339402 35.23467554 C-251.40443819 35.23023357 -257.39548196 35.22679808 -263.38652713 35.22405341 C-272.88750524 35.21962897 -282.38846794 35.21188406 -291.88943631 35.19727901 C-296.23377351 35.19065302 -300.57809704 35.18560305 -304.92243958 35.18481827 C-308.89281794 35.18403546 -312.86316168 35.17866945 -316.83352929 35.16949877 C-318.27627523 35.16697575 -319.71902529 35.16616346 -321.16177309 35.16715756 C-323.11006695 35.16824147 -325.05836123 35.16266321 -327.00664616 35.1566658 C-328.6357289 35.15479606 -328.6357289 35.15479606 -330.2977224 35.15288854 C-332.71512604 35.02523804 -332.71512604 35.02523804 -333.71512604 34.02523804 C-333.88619168 31.83216141 -333.99034383 29.63380736 -334.06668854 27.43539429 C-334.10141769 26.44580971 -334.10141769 26.44580971 -334.13684845 25.43623352 C-334.18454315 24.03832841 -334.22977045 22.64033729 -334.27274323 21.24227905 C-334.33974437 19.09994171 -334.41752896 16.9581839 -334.49637604 14.81625366 C-334.54129992 13.46015535 -334.58559174 12.10403592 -334.62918854 10.74789429 C-334.66995514 9.50789673 -334.71072174 8.26789917 -334.75272369 6.99032593 C-334.71512604 4.02523804 -334.71512604 4.02523804 -333.71512604 2.02523804 C-323.05009323 0.18397412 -311.65604051 0.90590276 -300.86833572 0.94993591 C-297.54476951 0.96329727 -294.22124013 0.97001163 -290.89765167 0.97531128 C-285.95905569 0.98366188 -281.0204734 0.9943899 -276.08188629 1.00692749 C-262.23829499 1.04074538 -248.39469148 1.05189549 -234.55106354 1.05648804 C-233.79936433 1.05677568 -233.04766513 1.05706333 -232.27318716 1.0573597 C-178.76904114 1.07577514 -125.26564021 0.7068325 -71.76260877 0.39848042 C-68.69442037 0.38082367 -65.62623152 0.36324758 -62.55804253 0.3456955 C-60.55387495 0.33421702 -58.54970739 0.32273482 -56.54553986 0.31124878 C-55.56746601 0.30564611 -54.58939215 0.30004344 -53.5816797 0.29427099 C-47.94400696 0.26184727 -42.3063421 0.22832429 -36.66868103 0.19393492 C-26.78866101 0.1337958 -16.90863324 0.08079355 -7.02853107 0.03614426 C-4.68568117 0.02509922 -2.34284168 0.01266205 0 0 Z " fill="#244057" transform="translate(665.7151260375977,648.9747619628906)"/>
<path d="M0 0 C1.15179749 -0.02889816 2.30359497 -0.05779633 3.49029541 -0.08757019 C8.74341193 -0.1636617 13.99598811 -0.23806979 19.24951172 -0.27539062 C22.70149909 -0.30306329 26.15030244 -0.38221992 29.60112381 -0.47293377 C32.91719033 -0.54754243 36.23297191 -0.5587185 39.54980469 -0.5793457 C40.77822083 -0.61952316 42.00663696 -0.65970062 43.27227783 -0.70109558 C49.92639558 -0.6680903 53.52596742 -0.02513853 58.33789062 4.76123047 C59.63517031 6.27763797 60.9122839 7.81177255 62.15917969 9.36987305 C63.52042969 10.70018555 63.52042969 10.70018555 64.90917969 12.05737305 C67.15917969 14.36987305 67.15917969 14.36987305 69.59667969 17.36987305 C72.06633084 20.4337041 72.06633084 20.4337041 75.09667969 22.80737305 C77.47031458 24.79347571 79.21801715 26.52324575 81.15917969 28.86987305 C83.06286869 31.16913379 84.76601066 32.87341364 87.09667969 34.80737305 C89.47916551 36.80088159 91.25521845 38.55553714 93.23095703 40.89331055 C100.32762081 49.0949735 108.14102549 56.65612365 115.78417969 64.3449707 C117.79482451 66.36905644 119.79790565 68.40021226 121.79492188 70.43774414 C124.68615337 73.387582 127.5974289 76.31683889 130.51074219 79.24487305 C131.40354889 80.16034912 132.29635559 81.0758252 133.21621704 82.01904297 C134.05413788 82.85411377 134.89205872 83.68918457 135.75537109 84.54956055 C136.48704498 85.28932129 137.21871887 86.02908203 137.9725647 86.79125977 C140.61061692 88.69578539 141.97277906 88.82456641 145.15917969 88.36987305 C146.84716795 86.93237114 146.84716795 86.93237114 148.15917969 85.36987305 C148.81917969 85.36987305 149.47917969 85.36987305 150.15917969 85.36987305 C150.36542969 84.81299805 150.57167969 84.25612305 150.78417969 83.68237305 C152.31888253 81.1012819 154.1859065 79.62828602 156.52246094 77.78393555 C158.25510858 76.28699414 159.64409397 74.70039963 161.09667969 72.93237305 C163.70499879 69.77202874 166.55470947 67.19908195 169.74121094 64.6315918 C171.29612389 63.40508011 171.29612389 63.40508011 172.15917969 61.36987305 C172.81917969 61.36987305 173.47917969 61.36987305 174.15917969 61.36987305 C174.42730469 60.73049805 174.69542969 60.09112305 174.97167969 59.43237305 C176.15917969 57.36987305 176.15917969 57.36987305 179.15917969 56.36987305 C179.48917969 55.37987305 179.81917969 54.38987305 180.15917969 53.36987305 C181.57660722 52.18868343 182.99811578 51.01199319 184.44140625 49.86254883 C186.24916142 48.29168256 187.7272825 46.63154038 189.26855469 44.79956055 C193.53887784 39.85399607 198.14244382 35.27696629 202.78417969 30.68237305 C203.61691406 29.85415039 204.44964844 29.02592773 205.30761719 28.17260742 C206.90023513 26.58886554 208.49415457 25.00643097 210.08959961 23.42553711 C211.75564655 21.7706928 213.41114985 20.10668543 215.06152344 18.4362793 C217.15917969 16.36987305 217.15917969 16.36987305 220.09667969 13.99487305 C222.98376025 11.64216215 225.31374755 8.99437055 227.66699219 6.1159668 C228.15941406 5.53975586 228.65183594 4.96354492 229.15917969 4.36987305 C229.72608017 3.68420761 230.29298065 2.99854218 230.87705994 2.292099 C233.80898044 -0.17745313 235.36668421 -0.13124366 239.1652832 -0.13183594 C240.37656387 -0.14121689 241.58784454 -0.15059784 242.83583069 -0.16026306 C244.14007492 -0.14902908 245.44431915 -0.1377951 246.78808594 -0.1262207 C248.14281797 -0.12637572 249.49755045 -0.12786519 250.85227966 -0.13063049 C253.68777129 -0.13201346 256.52275645 -0.11947303 259.3581543 -0.09667969 C262.99229428 -0.06826728 266.62559471 -0.07104062 270.2597971 -0.0837698 C273.0556709 -0.09072427 275.85135061 -0.08294099 278.64719963 -0.07051277 C280.63861365 -0.06380316 282.63005493 -0.06814116 284.62147522 -0.07261658 C286.43366798 -0.05359032 286.43366798 -0.05359032 288.2824707 -0.03417969 C289.3474025 -0.0287767 290.41233429 -0.02337372 291.50953674 -0.01780701 C294.15917969 0.36987305 294.15917969 0.36987305 295.80181408 1.54547977 C297.68718411 4.07954752 297.53122863 5.80453617 297.52667236 8.94784546 C297.53224435 10.11415749 297.53781633 11.28046951 297.54355717 12.48212433 C297.52973074 14.41115223 297.52973074 14.41115223 297.515625 16.37915039 C297.51639292 17.75257241 297.51846739 19.12599421 297.52174282 20.49941254 C297.5268561 24.27176657 297.51310891 28.0438526 297.49617934 31.81616354 C297.48116851 35.85807774 297.48311578 39.89998793 297.48286438 43.94192505 C297.47953368 51.81000331 297.45971099 59.67795822 297.43403333 67.54599202 C297.41363219 73.90565814 297.39975341 80.26530841 297.39035034 86.625 C297.38900418 87.52611645 297.38765802 88.4272329 297.38627106 89.35565591 C297.38492234 90.25874482 297.38357362 91.16183373 297.38218403 92.09228897 C297.31018308 140.22973886 297.08972074 188.36718033 296.75212097 236.50348663 C296.73164657 239.42433609 296.71169257 242.34518835 296.69221497 245.26604462 C296.63694178 253.53635281 296.57631308 261.80657792 296.50649071 270.07677841 C296.48606906 272.56257762 296.46722239 275.04839033 296.450037 277.53421402 C296.42629782 280.89030271 296.39634842 284.24627481 296.36450195 287.60229492 C296.35874775 288.58977407 296.35299355 289.57725323 296.34706497 290.59465599 C296.33727489 291.48207796 296.32748482 292.36949993 296.31739807 293.28381348 C296.30771924 294.4399477 296.30771924 294.4399477 296.29784489 295.61943817 C296.15917969 297.36987305 296.15917969 297.36987305 295.15917969 298.36987305 C292.00377983 298.4759061 288.87014596 298.51664698 285.71411133 298.51513672 C284.22641487 298.52017464 284.22641487 298.52017464 282.70866394 298.52531433 C279.41220872 298.53485591 276.11580412 298.53676903 272.81933594 298.5378418 C270.53869098 298.54105209 268.25804624 298.54441599 265.97740173 298.54792786 C261.18976361 298.55392712 256.40214357 298.55576693 251.61450195 298.55517578 C245.46597906 298.5550741 239.3175715 298.5687289 233.16907597 298.58594799 C228.45689863 298.59704159 223.74474941 298.59909581 219.03256035 298.59856606 C216.76505574 298.59975007 214.4975505 298.60419523 212.23005867 298.61189842 C209.06450339 298.6216454 205.89920153 298.61884131 202.73364258 298.61279297 C201.78862885 298.61841248 200.84361511 298.62403198 199.8699646 298.62982178 C199.01041672 298.62562729 198.15086884 298.6214328 197.26527405 298.61711121 C196.14171304 298.61792836 196.14171304 298.61792836 194.99545383 298.61876202 C193.15917969 298.36987305 193.15917969 298.36987305 191.15917969 296.36987305 C225.47917969 296.36987305 259.79917969 296.36987305 295.15917969 296.36987305 C295.15917969 199.67987305 295.15917969 102.98987305 295.15917969 3.36987305 C238.54112755 -1.15998648 238.54112755 -1.15998648 216.42089844 15.1159668 C212.79937052 19.08417486 209.4833781 22.82017976 206.24572754 27.03649902 C203.8405796 30.08086524 201.22957327 32.93977559 198.63769531 35.82495117 C190.02738392 44.99989263 190.02738392 44.99989263 183.15917969 55.36987305 C182.49917969 55.36987305 181.83917969 55.36987305 181.15917969 55.36987305 C180.82917969 56.35987305 180.49917969 57.34987305 180.15917969 58.36987305 C179.49917969 58.36987305 178.83917969 58.36987305 178.15917969 58.36987305 C177.82917969 59.35987305 177.49917969 60.34987305 177.15917969 61.36987305 C175.54025796 63.08295448 173.86277653 64.74097361 172.15917969 66.36987305 C171.11052586 67.41317201 170.06468219 68.45930096 169.02124023 69.5078125 C160.73388672 77.79516602 152.4465332 86.08251953 144.15917969 94.36987305 C140.67035671 92.87384718 138.4171656 90.87580384 135.74536133 88.19897461 C134.88088882 87.33757874 134.01641632 86.47618286 133.12574768 85.58868408 C131.73657387 84.18873199 131.73657387 84.18873199 130.31933594 82.76049805 C129.3509056 81.7908743 128.38210386 80.82162135 127.41294861 79.85272217 C125.38326764 77.82147859 123.35698412 75.78692598 121.33325195 73.74975586 C118.75169651 71.15126786 116.16366515 68.55935336 113.57325077 65.96969986 C111.57140569 63.96758139 109.57218891 61.96285552 107.57382011 59.95726776 C106.16071933 58.53947729 104.74615379 57.12314721 103.33155823 55.70684814 C99.05526224 51.39910752 94.99808962 47.06715417 91.15917969 42.36987305 C90.34505615 41.57935547 89.53093262 40.78883789 88.69213867 39.97436523 C86.71065679 37.93692439 85.16894758 36.08627513 83.54614258 33.78881836 C74.37121128 20.90994185 66.34772406 15.05218313 53.15917969 4.36987305 C32.69917969 4.03987305 12.23917969 3.70987305 -8.84082031 3.36987305 C-8.84082031 100.05987305 -8.84082031 196.74987305 -8.84082031 296.36987305 C-9.17082031 296.36987305 -9.50082031 296.36987305 -9.84082031 296.36987305 C-10.4054067 274.41091171 -10.83463815 252.45168106 -11.09472656 230.48706055 C-11.10508879 229.61842628 -11.11545101 228.74979202 -11.12612724 227.85483551 C-11.23059853 219.06769061 -11.33072012 210.28051632 -11.42144871 201.49321842 C-11.465 197.32446999 -11.51138769 193.15575789 -11.55957031 188.98706055 C-11.56895819 188.17061632 -11.57834606 187.3541721 -11.58801842 186.51298714 C-11.70661319 176.58818307 -11.9433256 166.68176289 -12.36425781 156.7644043 C-13.10066208 138.90647596 -12.99188005 121.03636293 -12.97119141 103.16650391 C-12.96545206 98.15359859 -12.96881683 93.14074636 -12.97476387 88.1278429 C-12.97840665 84.19746004 -12.97721469 80.26708943 -12.97463608 76.33670616 C-12.9739793 74.48910198 -12.97475032 72.6414966 -12.97711563 70.79389381 C-12.98742381 60.50318396 -12.7610662 50.28490356 -12.07885742 40.01594543 C-11.80154467 35.76827845 -11.63281432 31.5269351 -11.52441406 27.2722168 C-11.50363297 26.54160538 -11.48285187 25.81099396 -11.46144104 25.0582428 C-11.39797474 22.80801208 -11.3380464 20.55770577 -11.27832031 18.30737305 C-11.23494001 16.7468195 -11.19132107 15.18627256 -11.14746094 13.62573242 C-11.04251516 9.87385099 -10.9407328 6.1218923 -10.84082031 2.36987305 C-7.1031316 0.65962855 -4.0989069 0.09215367 0 0 Z " fill="#EDF5F7" transform="translate(368.8408203125,338.630126953125)"/>
<path d="M0 0 C3.72165535 -0.0196326 7.44329492 -0.03398529 11.1649878 -0.04415035 C13.18433781 -0.05076916 15.20367008 -0.06223755 17.22299767 -0.07382965 C18.40970621 -0.07590172 19.59641476 -0.07797379 20.81908417 -0.08010864 C21.85674486 -0.08395317 22.89440556 -0.0877977 23.96351051 -0.09175873 C26.28487396 0.02523804 26.28487396 0.02523804 27.28487396 1.02523804 C27.50347835 5.40687829 27.47066474 9.79396932 27.4701767 14.18051147 C27.47235805 16.38415988 27.49049564 18.58730366 27.50948334 20.79086304 C27.51241824 22.18929882 27.51440239 23.58773699 27.51534271 24.98617554 C27.5194516 26.26283081 27.52356049 27.53948608 27.52779388 28.85482788 C27.28487396 32.02523804 27.28487396 32.02523804 25.28487396 35.02523804 C22.74212116 35.39898419 22.74212116 35.39898419 19.45055294 35.39717484 C17.57492142 35.4070596 17.57492142 35.4070596 15.66139835 35.41714406 C14.26094057 35.40927483 12.86048433 35.40112695 11.4600296 35.39273071 C9.98233535 35.39475329 8.5046424 35.39809055 7.02695376 35.40263629 C2.95155767 35.41132074 -1.12361213 35.40118537 -5.19898856 35.38809395 C-9.5882483 35.37723246 -13.97748627 35.38360304 -18.36675262 35.38787842 C-26.97087537 35.39352322 -35.5749093 35.38317556 -44.1790169 35.36759046 C-54.18842692 35.35009061 -64.19781948 35.34863204 -74.20724242 35.34797487 C-92.05990582 35.34628527 -109.91252864 35.33045124 -127.76517487 35.30648804 C-145.10860277 35.28322508 -162.45200493 35.26906304 -179.7954483 35.26547241 C-180.86370187 35.26524964 -181.93195544 35.26502688 -183.03258032 35.26479736 C-185.18443532 35.26435478 -187.33629032 35.26391275 -189.48814532 35.26347129 C-190.5495119 35.26325172 -191.61087848 35.26303216 -192.70440769 35.26280594 C-193.76300771 35.26258995 -194.82160772 35.26237397 -195.91228652 35.26215144 C-212.41265861 35.2584545 -228.91302651 35.24709479 -245.41339402 35.23467554 C-251.40443819 35.23023357 -257.39548196 35.22679808 -263.38652713 35.22405341 C-272.88750524 35.21962897 -282.38846794 35.21188406 -291.88943631 35.19727901 C-296.23377351 35.19065302 -300.57809704 35.18560305 -304.92243958 35.18481827 C-308.89281794 35.18403546 -312.86316168 35.17866945 -316.83352929 35.16949877 C-318.27627523 35.16697575 -319.71902529 35.16616346 -321.16177309 35.16715756 C-323.11006695 35.16824147 -325.05836123 35.16266321 -327.00664616 35.1566658 C-328.6357289 35.15479606 -328.6357289 35.15479606 -330.2977224 35.15288854 C-332.71512604 35.02523804 -332.71512604 35.02523804 -333.71512604 34.02523804 C-333.88619168 31.83216141 -333.99034383 29.63380736 -334.06668854 27.43539429 C-334.10141769 26.44580971 -334.10141769 26.44580971 -334.13684845 25.43623352 C-334.18454315 24.03832841 -334.22977045 22.64033729 -334.27274323 21.24227905 C-334.33974437 19.09994171 -334.41752896 16.9581839 -334.49637604 14.81625366 C-334.54129992 13.46015535 -334.58559174 12.10403592 -334.62918854 10.74789429 C-334.66995514 9.50789673 -334.71072174 8.26789917 -334.75272369 6.99032593 C-334.71512604 4.02523804 -334.71512604 4.02523804 -333.71512604 2.02523804 C-323.05009323 0.18397412 -311.65604051 0.90590276 -300.86833572 0.94993591 C-297.54476951 0.96329727 -294.22124013 0.97001163 -290.89765167 0.97531128 C-285.95905569 0.98366188 -281.0204734 0.9943899 -276.08188629 1.00692749 C-262.23829499 1.04074538 -248.39469148 1.05189549 -234.55106354 1.05648804 C-233.79936433 1.05677568 -233.04766513 1.05706333 -232.27318716 1.0573597 C-178.76904114 1.07577514 -125.26564021 0.7068325 -71.76260877 0.39848042 C-68.69442037 0.38082367 -65.62623152 0.36324758 -62.55804253 0.3456955 C-60.55387495 0.33421702 -58.54970739 0.32273482 -56.54553986 0.31124878 C-55.56746601 0.30564611 -54.58939215 0.30004344 -53.5816797 0.29427099 C-47.94400696 0.26184727 -42.3063421 0.22832429 -36.66868103 0.19393492 C-26.78866101 0.1337958 -16.90863324 0.08079355 -7.02853107 0.03614426 C-4.68568117 0.02509922 -2.34284168 0.01266205 0 0 Z M-332.71512604 3.02523804 C-332.71512604 12.92523804 -332.71512604 22.82523804 -332.71512604 33.02523804 C-287.2524587 33.0478215 -241.7897927 33.06573525 -196.32712087 33.07630337 C-190.96581464 33.07755415 -185.60450842 33.07884846 -180.24320221 33.08016968 C-178.64212146 33.08056314 -178.64212146 33.08056314 -177.00869565 33.08096456 C-159.70171141 33.08532169 -142.39473046 33.09320947 -125.08774818 33.10239083 C-107.34315883 33.11172618 -89.59857123 33.11729339 -71.85397953 33.11932653 C-60.89530565 33.12070201 -49.93664112 33.12505392 -38.97797012 33.1331545 C-31.47398301 33.1384205 -23.97000077 33.14004267 -16.46601195 33.13873941 C-12.12978608 33.1380958 -7.79357659 33.13911613 -3.45735359 33.14444351 C0.50569653 33.14927716 4.46871912 33.14957692 8.43177045 33.14613693 C9.87188694 33.1457112 11.31200509 33.14700723 12.75211828 33.15012122 C14.69688319 33.15408475 16.64165837 33.1513946 18.58642483 33.14828587 C19.67052637 33.14866559 20.75462791 33.14904531 21.87158102 33.14943653 C24.23547901 33.2979095 24.23547901 33.2979095 25.28487396 32.02523804 C25.28487396 22.45523804 25.28487396 12.88523804 25.28487396 3.02523804 C-92.85512604 3.02523804 -210.99512604 3.02523804 -332.71512604 3.02523804 Z " fill="#F6FDFE" transform="translate(665.7151260375977,648.9747619628906)"/>
<path d="M0 0 C1.15179749 -0.02889816 2.30359497 -0.05779633 3.49029541 -0.08757019 C8.74341193 -0.1636617 13.99598811 -0.23806979 19.24951172 -0.27539062 C22.70149909 -0.30306329 26.15030244 -0.38221992 29.60112381 -0.47293377 C32.91719033 -0.54754243 36.23297191 -0.5587185 39.54980469 -0.5793457 C40.77822083 -0.61952316 42.00663696 -0.65970062 43.27227783 -0.70109558 C49.92639558 -0.6680903 53.52596742 -0.02513853 58.33789062 4.76123047 C59.63517031 6.27763797 60.9122839 7.81177255 62.15917969 9.36987305 C63.52042969 10.70018555 63.52042969 10.70018555 64.90917969 12.05737305 C67.15917969 14.36987305 67.15917969 14.36987305 69.59667969 17.36987305 C72.06633084 20.4337041 72.06633084 20.4337041 75.09667969 22.80737305 C78.0898291 25.31184501 80.42045507 27.89725658 82.86230469 30.91674805 C84.11698671 32.50274915 84.11698671 32.50274915 86.15917969 33.36987305 C86.15917969 34.02987305 86.15917969 34.68987305 86.15917969 35.36987305 C81.72791316 33.83665231 80.13221011 30.65448657 77.60449219 26.8659668 C70.23590094 16.83196091 70.23590094 16.83196091 53.15917969 4.36987305 C32.69917969 4.03987305 12.23917969 3.70987305 -8.84082031 3.36987305 C-8.84082031 100.05987305 -8.84082031 196.74987305 -8.84082031 296.36987305 C-9.17082031 296.36987305 -9.50082031 296.36987305 -9.84082031 296.36987305 C-10.4054067 274.41091171 -10.83463815 252.45168106 -11.09472656 230.48706055 C-11.10508879 229.61842628 -11.11545101 228.74979202 -11.12612724 227.85483551 C-11.23059853 219.06769061 -11.33072012 210.28051632 -11.42144871 201.49321842 C-11.465 197.32446999 -11.51138769 193.15575789 -11.55957031 188.98706055 C-11.56895819 188.17061632 -11.57834606 187.3541721 -11.58801842 186.51298714 C-11.70661319 176.58818307 -11.9433256 166.68176289 -12.36425781 156.7644043 C-13.10066208 138.90647596 -12.99188005 121.03636293 -12.97119141 103.16650391 C-12.96545206 98.15359859 -12.96881683 93.14074636 -12.97476387 88.1278429 C-12.97840665 84.19746004 -12.97721469 80.26708943 -12.97463608 76.33670616 C-12.9739793 74.48910198 -12.97475032 72.6414966 -12.97711563 70.79389381 C-12.98742381 60.50318396 -12.7610662 50.28490356 -12.07885742 40.01594543 C-11.80154467 35.76827845 -11.63281432 31.5269351 -11.52441406 27.2722168 C-11.50363297 26.54160538 -11.48285187 25.81099396 -11.46144104 25.0582428 C-11.39797474 22.80801208 -11.3380464 20.55770577 -11.27832031 18.30737305 C-11.23494001 16.7468195 -11.19132107 15.18627256 -11.14746094 13.62573242 C-11.04251516 9.87385099 -10.9407328 6.1218923 -10.84082031 2.36987305 C-7.1031316 0.65962855 -4.0989069 0.09215367 0 0 Z " fill="#F6FCFE" transform="translate(368.8408203125,338.630126953125)"/>
<path d="M0 0 C117.48 0 234.96 0 356 0 C355.67 0.99 355.34 1.98 355 3 C355 2.34 355 1.68 355 1 C238.51 1 122.02 1 2 1 C1.68219598 13.58097856 1.68219598 13.58097856 3 26 C118.5 26 234 26 353 26 C354.14654482 23.70691037 354.19729117 22.20090344 354.31640625 19.6484375 C354.35830078 18.79765625 354.40019531 17.946875 354.44335938 17.0703125 C354.50233398 15.73613281 354.50233398 15.73613281 354.5625 14.375 C354.60568359 13.4778125 354.64886719 12.580625 354.69335938 11.65625 C354.79956861 9.43765717 354.90161194 7.2189512 355 5 C355.33 5 355.66 5 356 5 C356 12.59 356 20.18 356 28 C238.52 28 121.04 28 0 28 C0 18.76 0 9.52 0 0 Z " fill="#1D3344" transform="translate(334,653)"/>
<path d="M0 0 C9.74528781 7.48512556 17.24285874 17.76465505 19.80078125 29.94921875 C20.68003404 37.98605592 20.38437285 46.117165 20.2890625 54.1875 C20.27972162 56.52303811 20.27261155 58.85858611 20.2676239 61.19413757 C20.24865466 67.30166303 20.19964118 73.40858136 20.144104 79.51586914 C20.09269326 85.76375113 20.07006344 92.01173248 20.04492188 98.25976562 C19.99151229 110.48984813 19.90632266 122.71948269 19.80078125 134.94921875 C19.47078125 134.94921875 19.14078125 134.94921875 18.80078125 134.94921875 C18.79531281 133.1387632 18.79531281 133.1387632 18.78973389 131.29173279 C18.75263294 119.86180239 18.69469662 108.43213766 18.61687851 97.00240993 C18.57753646 91.12765397 18.54528316 85.25304492 18.52978516 79.37817383 C18.51453084 73.69805279 18.47993102 68.01833605 18.43247223 62.33839607 C18.41774842 60.18215532 18.40974547 58.02585682 18.4088974 55.86956596 C18.46831233 33.83424062 18.46831233 33.83424062 9.80078125 13.94921875 C9.14078125 13.61921875 8.48078125 13.28921875 7.80078125 12.94921875 C7.35025391 12.03462891 7.35025391 12.03462891 6.890625 11.1015625 C3.08314831 3.5821372 -5.65187811 -0.32065205 -13.19921875 -3.05078125 C-23.68476952 -5.89583683 -39.06348985 -5.58659901 -48.80859375 -0.7578125 C-58.08946284 4.536534 -58.08946284 4.536534 -64.19921875 12.94921875 C-64.90498047 13.64337891 -64.90498047 13.64337891 -65.625 14.3515625 C-76.56279216 25.4522002 -74.67022741 44.78205821 -74.7109375 58.99609375 C-74.72780636 61.22097755 -74.74595953 63.44585195 -74.76533508 65.67071533 C-74.81260148 71.49024517 -74.84256154 77.30973687 -74.86877441 83.12939453 C-74.89869839 89.08243335 -74.94518777 95.03534106 -74.99023438 100.98828125 C-75.07600144 112.64185817 -75.14346442 124.29546226 -75.19921875 135.94921875 C-77.49313485 137.0961768 -78.76259024 137.07260527 -81.31204224 137.06947327 C-82.17303528 137.07084793 -83.03402832 137.0722226 -83.92111206 137.07363892 C-84.86769684 137.07004364 -85.81428162 137.06644836 -86.78955078 137.06274414 C-88.28228516 137.06296318 -88.28228516 137.06296318 -89.80517578 137.06318665 C-93.10581618 137.06248806 -96.40640067 137.05469819 -99.70703125 137.046875 C-101.99103769 137.04501063 -104.27504453 137.04358682 -106.55905151 137.04258728 C-112.57933653 137.03876362 -118.59959754 137.02893461 -124.61987305 137.0178833 C-130.75959956 137.00766593 -136.89932994 137.00308896 -143.0390625 136.99804688 C-155.09245848 136.98731223 -167.14583662 136.9702376 -179.19921875 136.94921875 C-179.52921875 136.28921875 -179.85921875 135.62921875 -180.19921875 134.94921875 C-145.87921875 134.94921875 -111.55921875 134.94921875 -76.19921875 134.94921875 C-76.35735068 100.88891032 -76.35735068 100.88891032 -76.55957031 66.82885742 C-76.57763672 60.21350098 -76.57763672 60.21350098 -76.58099365 57.10810852 C-76.58710135 54.95772483 -76.60109737 52.80735409 -76.621521 50.65705872 C-76.65103721 47.38335692 -76.65483497 44.11048593 -76.65332031 40.83666992 C-76.66771275 39.89257106 -76.68210518 38.94847219 -76.69693375 37.97576427 C-76.61690402 24.9503776 -70.73066735 14.58787984 -62.01171875 5.26171875 C-44.77784714 -11.30708735 -19.72350301 -12.64327116 0 0 Z " fill="#E2EBEF" transform="translate(540.19921875,500.05078125)"/>
<path d="M0 0 C3.78285824 0.91705654 5.65447648 2.55743603 8.06396484 5.45703125 C15.12555561 13.71304993 22.96930943 21.27363929 30.625 28.97509766 C32.63564483 30.99918339 34.63872596 33.03033922 36.63574219 35.06787109 C39.52697368 38.01770895 42.43824921 40.94696584 45.3515625 43.875 C46.2443692 44.79047607 47.1371759 45.70595215 48.05703735 46.64916992 C48.89495819 47.48424072 49.73287903 48.31931152 50.59619141 49.1796875 C51.3278653 49.91944824 52.05953918 50.65920898 52.81338501 51.42138672 C55.45143723 53.32591234 56.81359937 53.45469336 60 53 C61.68798827 51.56249809 61.68798827 51.56249809 63 50 C63.66 50 64.32 50 65 50 C65.309375 49.1646875 65.309375 49.1646875 65.625 48.3125 C67.15970284 45.73140886 69.02672682 44.25841297 71.36328125 42.4140625 C73.0959289 40.9171211 74.48491429 39.33052658 75.9375 37.5625 C78.5458191 34.40215569 81.39552978 31.8292089 84.58203125 29.26171875 C86.1369442 28.03520707 86.1369442 28.03520707 87 26 C87.66 26 88.32 26 89 26 C89.268125 25.360625 89.53625 24.72125 89.8125 24.0625 C91 22 91 22 94 21 C94.495 19.515 94.495 19.515 95 18 C97.0625 17.3125 97.0625 17.3125 99 17 C98.505 18.485 98.505 18.485 98 20 C97.34 20 96.68 20 96 20 C95.505 21.485 95.505 21.485 95 23 C94.34 23 93.68 23 93 23 C92.505 24.485 92.505 24.485 92 26 C90.38107827 27.71308143 88.70359684 29.37110057 87 31 C85.95134618 32.04329896 84.9055025 33.08942792 83.86206055 34.13793945 C75.57470703 42.42529297 67.28735352 50.71264648 59 59 C55.51117702 57.50397413 53.25798591 55.50593079 50.58618164 52.82910156 C49.72170914 51.96770569 48.85723663 51.10630981 47.96656799 50.21881104 C47.04045212 49.28550964 46.11433624 48.35220825 45.16015625 47.390625 C44.19172591 46.42100125 43.22292418 45.45174831 42.25376892 44.48284912 C40.22408796 42.45160554 38.19780444 40.41705294 36.17407227 38.37988281 C33.59251682 35.78139481 31.00448546 33.18948031 28.41407108 30.59982681 C26.412226 28.59770834 24.41300922 26.59298247 22.41464043 24.58739471 C21.00153964 23.16960425 19.5869741 21.75327416 18.17237854 20.3369751 C13.89890772 16.03208042 9.80914629 11.71932842 6 7 C5.0925 6.0925 4.185 5.185 3.25 4.25 C1 2 1 2 0 0 Z " fill="#E8F1F5" transform="translate(454,374)"/>
<path d="M0 0 C1.22096375 0.00030212 2.44192749 0.00060425 3.69989014 0.00091553 C5.01354553 0.02156067 6.32720093 0.04220581 7.68066406 0.06347656 C9.04257374 0.0709407 10.40449418 0.07663282 11.76641846 0.08062744 C15.34399274 0.09587065 18.92091328 0.13513975 22.49822998 0.17944336 C26.1513993 0.22042524 29.80467468 0.2386446 33.45800781 0.25878906 C40.62106567 0.30163646 47.78358562 0.36987042 54.94628906 0.45410156 C55.44128906 1.93910156 55.44128906 1.93910156 55.94628906 3.45410156 C55.2761377 3.36004028 54.60598633 3.265979 53.91552734 3.16906738 C45.28190544 2.02278939 36.6455042 1.31590438 27.94628906 0.95410156 C27.25069382 0.92488995 26.55509857 0.89567833 25.83842468 0.86558151 C6.17404968 0.17429308 -7.82965801 3.21967999 -22.49964905 16.79143906 C-33.3841864 27.16563597 -43.18254206 38.78411441 -52.40814209 50.63856506 C-52.95117981 51.23769211 -53.49421753 51.83681915 -54.05371094 52.45410156 C-54.71371094 52.45410156 -55.37371094 52.45410156 -56.05371094 52.45410156 C-54.98383516 49.24447424 -54.469814 48.75504319 -51.92871094 46.76660156 C-49.36172033 44.64379847 -47.13528053 42.50188909 -44.99121094 39.95410156 C-39.9116596 33.97203314 -34.23401496 28.55093602 -28.65454102 23.04101562 C-27.19635034 21.595501 -25.75124633 20.13681516 -24.30761719 18.67675781 C-22.05371094 16.45410156 -22.05371094 16.45410156 -19.11621094 14.07910156 C-16.22913037 11.72639066 -13.89914307 9.07859906 -11.54589844 6.20019531 C-11.05347656 5.62398438 -10.56105469 5.04777344 -10.05371094 4.45410156 C-9.20483307 3.42413055 -9.20483307 3.42413055 -8.33880615 2.37335205 C-5.38673934 -0.10608759 -3.81964597 -0.03156732 0 0 Z " fill="#F4FCFE" transform="translate(608.0537109375,338.5458984375)"/>
<path d="M0 0 C0.66 0.33 1.32 0.66 2 1 C1.67 1.66 1.34 2.32 1 3 C0.34 3 -0.32 3 -1 3 C-1.33 3.99 -1.66 4.98 -2 6 C-2.66 6 -3.32 6 -4 6 C-4.33 6.99 -4.66 7.98 -5 9 C-6.62008859 10.71197796 -8.29567328 12.37186426 -10 14 C-10.91434814 14.91434814 -11.82869629 15.82869629 -12.77075195 16.77075195 C-19.84716797 23.84716797 -26.92358398 30.92358398 -34 38 C-34.66 37.34 -35.32 36.68 -36 36 C-35.34 35.01 -34.68 34.02 -34 33 C-33.34 33 -32.68 33 -32 33 C-31.79375 32.443125 -31.5875 31.88625 -31.375 31.3125 C-29.84029716 28.73140886 -27.97327318 27.25841297 -25.63671875 25.4140625 C-23.9040711 23.9171211 -22.51508571 22.33052658 -21.0625 20.5625 C-18.4541809 17.40215569 -15.60447022 14.8292089 -12.41796875 12.26171875 C-10.8630558 11.03520707 -10.8630558 11.03520707 -10 9 C-9.34 9 -8.68 9 -8 9 C-7.731875 8.360625 -7.46375 7.72125 -7.1875 7.0625 C-6 5 -6 5 -3 4 C-2.67 3.01 -2.34 2.02 -2 1 C-1.34 0.67 -0.68 0.34 0 0 Z " fill="#DCE7EB" transform="translate(551,391)"/>
<path d="M0 0 C0.33 0.66 0.66 1.32 1 2 C0.69720123 2.82787018 0.39440247 3.65574036 0.08242798 4.50869751 C-1.32062046 9.03414086 -1.30770943 13.15069427 -1.31884766 17.86083984 C-1.32889328 18.83707306 -1.3389389 19.81330627 -1.34928894 20.81912231 C-1.38008105 24.03305494 -1.39714519 27.24690441 -1.4140625 30.4609375 C-1.43277732 32.69439406 -1.45235097 34.92784357 -1.4727478 37.1612854 C-1.52404168 43.03021081 -1.56368222 48.89915912 -1.60089111 54.76818848 C-1.64094786 60.76088111 -1.69203262 66.75347863 -1.7421875 72.74609375 C-1.83891436 84.497329 -1.92332962 96.24861798 -2 108 C-2.66 107.67 -3.32 107.34 -4 107 C-3.93889523 93.34410751 -3.86186642 79.68840783 -3.76428509 66.03272438 C-3.71948332 59.69240199 -3.68024898 53.35214533 -3.65356445 47.01171875 C-3.62762916 40.89729867 -3.58729665 34.78313019 -3.53681374 28.6688652 C-3.52007866 26.33161921 -3.50860594 23.99432964 -3.50238609 21.65703201 C-3.49281705 18.39299139 -3.46484453 15.12960422 -3.43237305 11.86572266 C-3.43380814 10.89108566 -3.43524323 9.91644867 -3.4367218 8.91227722 C-3.42418365 8.02604172 -3.41164551 7.13980621 -3.39872742 6.22671509 C-3.39411845 5.45425257 -3.38950949 4.68179005 -3.38476086 3.88591957 C-3 2 -3 2 0 0 Z " fill="#F6FDFF" transform="translate(467,528)"/>
<path d="M0 0 C0.33 0 0.66 0 1 0 C1.33 31.68 1.66 63.36 2 96 C2.66 96.33 3.32 96.66 4 97 C4 97.66 4 98.32 4 99 C2.68 99 1.36 99 0 99 C0 66.33 0 33.66 0 0 Z " fill="#15334B" transform="translate(561,536)"/>
<path d="M0 0 C3.82208039 0.92656494 5.69116463 2.60185056 8.125 5.53125 C12.16699516 10.26116521 16.51559374 14.62735234 20.9375 19 C21.71673828 19.77472656 22.49597656 20.54945313 23.29882812 21.34765625 C25.1969242 23.23410757 27.09733149 25.11816245 29 27 C28.67 27.99 28.34 28.98 28 30 C25.26661341 27.29589809 22.53907476 24.58596885 19.8125 21.875 C19.04357422 21.11445313 18.27464844 20.35390625 17.48242188 19.5703125 C13.42322981 15.52854186 9.60562242 11.44892638 6 7 C5.0925 6.0925 4.185 5.185 3.25 4.25 C1 2 1 2 0 0 Z " fill="#DBE4E9" transform="translate(454,374)"/>
<path d="M0 0 C2.44241333 -0.36076355 2.44241333 -0.36076355 5.55126953 -0.34057617 C6.71232208 -0.34034958 7.87337463 -0.34012299 9.0696106 -0.33988953 C10.32796722 -0.32440567 11.58632385 -0.30892181 12.8828125 -0.29296875 C14.16735321 -0.28872391 15.45189392 -0.28447906 16.77536011 -0.28010559 C20.19172641 -0.2686468 23.60771056 -0.23917143 27.02392578 -0.20599365 C30.50938751 -0.17531462 33.99491094 -0.16160494 37.48046875 -0.14648438 C44.32046957 -0.11430221 51.16021644 -0.06309376 58 0 C58 0.33 58 0.66 58 1 C40.51 1 23.02 1 5 1 C4.34 2.32 3.68 3.64 3 5 C2.01 5 1.02 5 0 5 C0 4.67 0 4.34 0 4 C-0.66 3.67 -1.32 3.34 -2 3 C-1.34 2.01 -0.68 1.02 0 0 Z " fill="#1D3344" transform="translate(602,343)"/>
<path d="M0 0 C0 3.57996647 -0.92545363 4.23393817 -3 7 C-3 7.99 -3 8.98 -3 10 C-4.375 11.6875 -4.375 11.6875 -6 13 C-6.66 13 -7.32 13 -8 13 C-8 13.66 -8 14.32 -8 15 C-10.64 15.66 -13.28 16.32 -16 17 C-11.01595832 10.96668638 -5.58084697 5.4815829 0 0 Z " fill="#324A5D" transform="translate(601,343)"/>
<path d="M0 0 C9.31543624 7.81208054 9.31543624 7.81208054 12 11 C11.8125 13.3125 11.8125 13.3125 11 15 C10.34 15 9.68 15 9 15 C9 14.34 9 13.68 9 13 C8.4225 12.814375 7.845 12.62875 7.25 12.4375 C4.82262826 10.88667917 4.22359487 9.9116139 2.875 7.4375 C1.40524759 3.96468026 1.40524759 3.96468026 -1 3 C-0.67 2.01 -0.34 1.02 0 0 Z " fill="#2A4357" transform="translate(422,343)"/>
<path d="M0 0 C0 4.36769865 -2.48443891 6.33023938 -5.34375 9.48046875 C-8.09465896 12.59123499 -9.63135066 14.82197411 -10 19 C-10.66 18.67 -11.32 18.34 -12 18 C-12 17.01 -12 16.02 -12 15 C-12.66 14.67 -13.32 14.34 -14 14 C-9.38 9.38 -4.76 4.76 0 0 Z " fill="#384E5F" transform="translate(584,360)"/>
<path d="M0 0 C0.66 0 1.32 0 2 0 C2 3 2 3 0.62890625 4.4453125 C-0.17740234 5.21488281 -0.17740234 5.21488281 -1 6 C-2.12945408 7.861878 -2.12945408 7.861878 -3.0625 9.875 C-3.40152344 10.57496094 -3.74054688 11.27492188 -4.08984375 11.99609375 C-4.82650146 13.61800536 -5.48789962 15.27396011 -6.125 16.9375 C-7 19 -7 19 -9 20 C-8.67149778 12.60869995 -5.24546655 5.24546655 0 0 Z " fill="#E5EDF1" transform="translate(474,510)"/>
<path d="M0 0 C20.08788951 -0.84778901 20.08788951 -0.84778901 28 4 C28.33 4.99 28.66 5.98 29 7 C27.22888156 6.52188823 25.45811517 6.0424722 23.6875 5.5625 C22.70136719 5.29566406 21.71523438 5.02882813 20.69921875 4.75390625 C18.78482474 4.21920575 16.88566385 3.62855462 15 3 C15 2.34 15 1.68 15 1 C10.05 1 5.1 1 0 1 C0 0.67 0 0.34 0 0 Z " fill="#D0DAE0" transform="translate(504,492)"/>
<path d="M0 0 C0.66 0 1.32 0 2 0 C2 0.99 2 1.98 2 3 C1.34 3 0.68 3 0 3 C0.33 4.32 0.66 5.64 1 7 C0.34 7 -0.32 7 -1 7 C-1.33 8.32 -1.66 9.64 -2 11 C-2.33 10.34 -2.66 9.68 -3 9 C-4.57273568 11.8424854 -4.57273568 11.8424854 -5 15 C-5.66 15 -6.32 15 -7 15 C-7 14.34 -7 13.68 -7 13 C-7.66 12.67 -8.32 12.34 -9 12 C-8.21625 11.2575 -7.4325 10.515 -6.625 9.75 C-4.38897893 7.40750173 -3.25118608 5.88735248 -2 3 C-1.34 2.01 -0.68 1.02 0 0 Z " fill="#264259" transform="translate(544,400)"/>
<path d="M0 0 C0 0.99 0 1.98 0 3 C-0.99 3.495 -0.99 3.495 -2 4 C-1.34 2.68 -0.68 1.36 0 0 Z M-4 2 C-3.34 2.99 -2.68 3.98 -2 5 C-3.52994792 6.20442708 -5.05989583 7.40885417 -6.58984375 8.61328125 C-8.27155077 10.05683091 -8.27155077 10.05683091 -9 13 C-11.97 12.505 -11.97 12.505 -15 12 C-14 10 -14 10 -12.3125 9.25 C-8.91092027 7.41130826 -6.66865945 4.78996215 -4 2 Z " fill="#274054" transform="translate(525,422)"/>
<path d="M0 0 C2.91019311 2.46824401 3.93540196 4.93080098 5.1875 8.5 C5.53167969 9.4590625 5.87585938 10.418125 6.23046875 11.40625 C7 14 7 14 7 17 C6.01 16.67 5.02 16.34 4 16 C3.12109375 13.63671875 3.12109375 13.63671875 2.4375 10.6875 C1.61036569 7.18736668 0.74573114 4.1543039 -1 1 C-0.67 0.67 -0.34 0.34 0 0 Z " fill="#E0E8EC" transform="translate(553,516)"/>
<path d="M0 0 C0.33 0.66 0.66 1.32 1 2 C0.70351563 2.85851562 0.40703125 3.71703125 0.1015625 4.6015625 C-1.19333282 8.5964523 -1.44412199 12.20726924 -1.625 16.375 C-1.66367187 17.11105469 -1.70234375 17.84710937 -1.7421875 18.60546875 C-1.83557998 20.40327406 -1.9188371 22.20160108 -2 24 C-2.33 24 -2.66 24 -3 24 C-3.08681476 20.37515001 -3.14032721 16.75056557 -3.1875 13.125 C-3.21263672 12.09246094 -3.23777344 11.05992187 -3.26367188 9.99609375 C-3.27333984 9.00996094 -3.28300781 8.02382813 -3.29296875 7.0078125 C-3.31653442 5.64100342 -3.31653442 5.64100342 -3.34057617 4.24658203 C-3.22818604 3.50520996 -3.1157959 2.76383789 -3 2 C-2.01 1.34 -1.02 0.68 0 0 Z " fill="#EEF5F7" transform="translate(467,528)"/>
<path d="M0 0 C0 3.3645241 -0.38101977 5.05639958 -2 8 C-4.875 9.6875 -4.875 9.6875 -8 11 C-9.33711834 11.65904231 -10.67129999 12.3241461 -12 13 C-8.19524578 8.43969176 -4.25030379 4.14910608 0 0 Z " fill="#4C6070" transform="translate(569,375)"/>
<path d="M0 0 C2.53910197 0.38520564 3.72751123 0.70097943 5.484375 2.62890625 C5.90203125 3.26699219 6.3196875 3.90507812 6.75 4.5625 C7.17796875 5.20316406 7.6059375 5.84382813 8.046875 6.50390625 C8.36140625 6.99761719 8.6759375 7.49132812 9 8 C8.34 8.66 7.68 9.32 7 10 C6.608125 9.21625 6.21625 8.4325 5.8125 7.625 C3.75725331 4.64843582 2.40320742 4.01176437 -1 3 C-0.67 2.01 -0.34 1.02 0 0 Z " fill="#284154" transform="translate(461,384)"/>
<path d="M0 0 C0.66 0.33 1.32 0.66 2 1 C1.67 1.66 1.34 2.32 1 3 C0.34 3 -0.32 3 -1 3 C-1.33 3.99 -1.66 4.98 -2 6 C-2.66 6 -3.32 6 -4 6 C-4.33 6.99 -4.66 7.98 -5 9 C-5.99 9.33 -6.98 9.66 -8 10 C-7.75 8.125 -7.75 8.125 -7 6 C-5.68352881 5.30062468 -4.34977849 4.63270867 -3 4 C-2.67 3.01 -2.34 2.02 -2 1 C-1.34 0.67 -0.68 0.34 0 0 Z " fill="#E3EDF1" transform="translate(551,391)"/>
<path d="M0 0 C5.65253308 1.37031105 8.5113541 5.67689413 12 10 C11.67 10.66 11.34 11.32 11 12 C2.3690205 4.88610478 2.3690205 4.88610478 0 0 Z " fill="#E6F0F3" transform="translate(454,374)"/>
<path d="M0 0 C0.99 0.33 1.98 0.66 3 1 C0.36 3.64 -2.28 6.28 -5 9 C-5.66 8.34 -6.32 7.68 -7 7 C-4.66666667 4.66666667 -2.33333333 2.33333333 0 0 Z " fill="#D7E2E7" transform="translate(522,420)"/>
<path d="M0 0 C0 0.99 0 1.98 0 3 C0.66 3.66 1.32 4.32 2 5 C1.01 5 0.02 5 -1 5 C-1.33 5.99 -1.66 6.98 -2 8 C-2.66 7.67 -3.32 7.34 -4 7 C-4.33 7.66 -4.66 8.32 -5 9 C-4.814375 8.38125 -4.62875 7.7625 -4.4375 7.125 C-3.76313824 4.95839822 -3.76313824 4.95839822 -5 3 C-2.25 0 -2.25 0 0 0 Z " fill="#284257" transform="translate(552,394)"/>
<path d="M0 0 C1.98 1.65 3.96 3.3 6 5 C5.01 6.485 5.01 6.485 4 8 C4 7.34 4 6.68 4 6 C3.34 6 2.68 6 2 6 C1.67 6.99 1.34 7.98 1 9 C0.67 6.03 0.34 3.06 0 0 Z " fill="#2A4257" transform="translate(504,426)"/>
<path d="M0 0 C1.14926266 0.95421808 2.29430541 1.91352045 3.4375 2.875 C4.07558594 3.40867187 4.71367187 3.94234375 5.37109375 4.4921875 C7 6 7 6 8 8 C3.68607774 7.5206753 1.83430453 6.2542015 -1 3 C-0.67 2.01 -0.34 1.02 0 0 Z " fill="#344958" transform="translate(422,343)"/>
<path d="M0 0 C0.99 0 1.98 0 3 0 C4.421875 1.42578125 4.421875 1.42578125 5.75 3.3125 C6.19859375 3.92738281 6.6471875 4.54226563 7.109375 5.17578125 C8 7 8 7 7 10 C3.66442368 7.0094833 1.84916079 4.06815373 0 0 Z " fill="#ECF4F6" transform="translate(545,507)"/>
<path d="M0 0 C0.33 0 0.66 0 1 0 C0.91291331 1.45945288 0.80473093 2.91765868 0.6875 4.375 C0.62949219 5.18710937 0.57148438 5.99921875 0.51171875 6.8359375 C0 9 0 9 -3 11 C-2.53199289 6.94393835 -2.12046792 3.53411321 0 0 Z " fill="#D7E1E6" transform="translate(468,519)"/>
<path d="M0 0 C0.4125 0.495 0.825 0.99 1.25 1.5 C3.12202338 3.43386092 3.12202338 3.43386092 7 3 C7 3.66 7 4.32 7 5 C6.34 5 5.68 5 5 5 C4.67 5.66 4.34 6.32 4 7 C0 2.25 0 2.25 0 0 Z " fill="#183348" transform="translate(465,390)"/>
<path d="M0 0 C0.6875 1.8125 0.6875 1.8125 1 4 C-0.4375 5.75 -0.4375 5.75 -2 7 C-2.66 6.67 -3.32 6.34 -4 6 C-2.84826645 3.53199953 -1.95216435 1.95216435 0 0 Z " fill="#3E5567" transform="translate(556,388)"/>
</svg>
