<svg width="461" height="235" viewBox="0 0 461 235" fill="none" xmlns="http://www.w3.org/2000/svg">
<g clip-path="url(#clip0_5523_3969)">
<path fill-rule="evenodd" clip-rule="evenodd" d="M0.273438 166.074V156.474H5.60993C8.27822 156.474 13.6058 155.942 13.6058 149.542V91.9575C13.6058 88.4869 13.3354 80.2296 6.67369 80.2296H0.543806L7.47599 67.9609H417.643V80.2296H40.2706C36.8091 80.2296 32.2748 81.0319 32.2748 87.9641V106.092C33.0771 108.229 36.2772 109.022 37.8728 109.022C39.4683 109.022 45.0753 108.751 45.0753 99.9533H53.0711V129.548H45.0753C45.0753 126.879 42.1276 122.417 38.1432 122.084C34.9431 121.813 32.2748 122.886 32.2748 127.15V149.551C32.2748 151.949 35.2045 156.483 42.1366 156.483H46.9323V166.083H0.273438V166.074Z" fill="#003420"/>
<path fill-rule="evenodd" clip-rule="evenodd" d="M236.976 94.0817C236.976 96.2182 239.644 98.3456 241.24 98.8774C243.106 97.5433 252.968 91.9453 260.702 91.9453C268.437 91.9453 272.43 95.9477 272.43 102.078V131.402H253.77V108.739C253.77 105.81 252.968 103.673 250.308 103.403C247.64 103.132 240.708 108.739 238.842 111.399V151.928C238.842 155.66 242.574 158.328 245.774 158.328V166.062H213.25V158.066C216.45 158.066 219.912 157.003 220.182 152.198V107.144C220.182 105.81 218.046 102.078 213.25 102.078V94.0817H236.976Z" fill="#003420"/>
<path fill-rule="evenodd" clip-rule="evenodd" d="M460.188 94.0832H427.664V102.079C432.46 102.079 434.596 105.811 434.596 107.145V152.2C434.326 156.995 430.864 158.068 427.664 158.068V166.064H460.188V158.329C456.988 158.329 453.256 155.661 453.256 151.929V107.668C453.256 104.468 456.718 102.07 460.188 102.07V94.0742V94.0832Z" fill="#003420"/>
<path fill-rule="evenodd" clip-rule="evenodd" d="M164.984 94.0817C164.984 96.2182 167.652 98.3456 169.248 98.8774C171.114 97.5433 180.975 91.9453 188.71 91.9453C196.444 91.9453 200.438 95.9477 200.438 102.078V131.402H181.778V108.739C181.778 105.81 180.976 103.673 178.316 103.403C175.648 103.132 168.716 108.739 166.85 111.399V151.928C166.85 155.66 170.582 158.328 173.782 158.328V166.062H141.258V158.066C144.458 158.066 147.919 157.003 148.19 152.198V107.144C148.19 105.81 146.054 102.078 141.258 102.078V94.0817H164.984Z" fill="#003420"/>
<path fill-rule="evenodd" clip-rule="evenodd" d="M381.265 94.0817C381.265 96.2182 383.933 98.3456 385.529 98.8774C387.395 97.5433 397.257 91.9453 404.991 91.9453C412.726 91.9453 416.719 95.9477 416.719 102.078V131.402H398.059V108.739C398.059 105.81 397.257 103.673 394.598 103.403C391.929 103.132 384.997 108.739 383.131 111.399V151.928C383.131 155.66 386.863 158.328 390.063 158.328V166.062H357.539V158.066C360.739 158.066 364.201 157.003 364.471 152.198V107.144C364.471 105.81 362.335 102.078 357.539 102.078V94.0817H381.265Z" fill="#003420"/>
<path fill-rule="evenodd" clip-rule="evenodd" d="M127.18 143.673H108.52V150.876C108.52 153.805 107.988 159.944 99.1901 159.944C90.392 159.944 87.7237 154.076 87.7237 149.812V134.614C87.7237 133.279 88.7874 131.413 90.6534 131.413H127.18V111.951C127.18 103.153 125.314 100.485 121.582 96.7527C117.85 93.0207 104.788 91.957 98.9196 91.957C83.9917 91.957 79.187 94.0934 74.9231 97.555C70.6593 101.017 69.0547 108.219 69.0547 113.556V143.682C69.0547 151.678 70.6503 157.276 75.7164 162.342C80.7825 167.408 96.2424 167.408 99.4425 167.408C102.643 167.408 113.307 167.679 121.041 162.072C128.776 156.474 127.171 143.673 127.171 143.673H127.18ZM87.7237 110.617C87.7237 106.353 89.0578 99.9529 98.3878 99.9529C107.718 99.9529 108.52 106.885 108.52 110.617V120.217C108.52 121.813 107.186 123.418 105.32 123.418H90.9238C89.3282 123.418 87.7237 122.083 87.7237 120.488V110.626V110.617Z" fill="#003420"/>
<path fill-rule="evenodd" clip-rule="evenodd" d="M341.008 151.937V111.949C341.008 105.819 340.737 99.4184 334.346 94.8841C327.946 90.3499 317.552 90.6203 313.549 90.6203C309.547 90.6203 296.224 90.6203 290.085 97.5524C283.955 104.485 285.019 111.146 285.019 113.815H302.48C302.48 113.815 303.679 104.746 306.076 102.348C308.492 99.9322 314.875 97.2819 319.805 101.546C321.626 103.114 322.339 105.143 322.339 107.414V118.881C322.339 119.944 321.275 121.549 319.941 121.549C319.941 121.549 295.674 122.081 291.41 125.281C287.146 128.481 283.414 130.617 283.414 142.345C283.414 154.073 286.344 158.607 289.814 161.005C293.285 163.403 294.881 166.071 310.611 166.071H347.94V158.337C344.739 158.337 341.008 155.669 341.008 151.937ZM322.339 156.471C322.339 157.138 321.275 158.067 320.473 158.067H311.278C304.742 158.067 302.876 152.469 302.876 148.998V138.73C302.876 128.733 313.279 128.995 317.408 128.995C321.536 128.995 322.339 132.456 322.339 134.728V156.462V156.471Z" fill="#003420"/>
<path fill-rule="evenodd" clip-rule="evenodd" d="M442.691 80.0845C452.021 80.0845 459.593 77.245 459.593 73.7474C459.593 70.2497 452.03 67.4102 442.691 67.4102C433.352 67.4102 425.789 70.2497 425.789 73.7474C425.789 77.245 433.352 80.0845 442.691 80.0845Z" fill="#003420"/>
</g>
<defs>
<clipPath id="clip0_5523_3969">
<rect width="459.911" height="234.816" fill="white" transform="translate(0.273438)"/>
</clipPath>
</defs>
</svg>
